<?xml version="1.0" encoding="UTF-8"?>
<svg version="1.1" xmlns="http://www.w3.org/2000/svg" width="290" height="174">
<path d="M0 0 C95.7 0 191.4 0 290 0 C290 57.42 290 114.84 290 174 C194.3 174 98.6 174 0 174 C0 116.58 0 59.16 0 0 Z " fill="#2E286A" transform="translate(0,0)"/>
<path d="M0 0 C95.7 0 191.4 0 290 0 C290 26.4 290 52.8 290 80 C194.3 80 98.6 80 0 80 C0 53.6 0 27.2 0 0 Z " fill="#F9F0F0" transform="translate(0,94)"/>
<path d="M0 0 C95.7 0 191.4 0 290 0 C290 4.62 290 9.24 290 14 C194.3 14 98.6 14 0 14 C0 9.38 0 4.76 0 0 Z " fill="#C7091D" transform="translate(0,160)"/>
<path d="M0 0 C95.7 0 191.4 0 290 0 C290 4.29 290 8.58 290 13 C194.3 13 98.6 13 0 13 C0 8.71 0 4.42 0 0 Z " fill="#FDFBFB" transform="translate(0,147)"/>
<path d="M0 0 C95.7 0 191.4 0 290 0 C290 4.29 290 8.58 290 13 C194.3 13 98.6 13 0 13 C0 8.71 0 4.42 0 0 Z " fill="#C40013" transform="translate(0,134)"/>
<path d="M0 0 C95.7 0 191.4 0 290 0 C290 4.29 290 8.58 290 13 C194.3 13 98.6 13 0 13 C0 8.71 0 4.42 0 0 Z " fill="#FFFDFD" transform="translate(0,94)"/>
<path d="M0 0 C95.37 0 190.74 0 289 0 C289 4.29 289 8.58 289 13 C193.63 13 98.26 13 0 13 C0 8.71 0 4.42 0 0 Z " fill="#C40014" transform="translate(0,107)"/>
<path d="M0 0 C52.14 0 104.28 0 158 0 C158 4.62 158 9.24 158 14 C105.86 14 53.72 14 0 14 C0 9.38 0 4.76 0 0 Z " fill="#C60B1E" transform="translate(132,80)"/>
<path d="M0 0 C52.47 0 104.94 0 159 0 C159 4.29 159 8.58 159 13 C106.53 13 54.06 13 0 13 C0 8.71 0 4.42 0 0 Z " fill="#FBF7F8" transform="translate(131,40)"/>
<path d="M0 0 C52.47 0 104.94 0 159 0 C159 4.29 159 8.58 159 13 C106.53 13 54.06 13 0 13 C0 8.71 0 4.42 0 0 Z " fill="#FDFAFA" transform="translate(131,14)"/>
<path d="M0 0 C52.14 0 104.28 0 158 0 C158 4.29 158 8.58 158 13 C105.86 13 53.72 13 0 13 C0 8.71 0 4.42 0 0 Z " fill="#FFFDFD" transform="translate(132,67)"/>
<path d="M0 0 C52.14 0 104.28 0 158 0 C158 4.29 158 8.58 158 13 C105.86 13 53.72 13 0 13 C0 8.71 0 4.42 0 0 Z " fill="#C50014" transform="translate(132,27)"/>
<path d="M0 0 C51.81 0 103.62 0 157 0 C157 4.29 157 8.58 157 13 C105.19 13 53.38 13 0 13 C0 8.71 0 4.42 0 0 Z " fill="#C40014" transform="translate(132,54)"/>
<path d="M0 0 C51.81 0 103.62 0 157 0 C157 4.29 157 8.58 157 13 C105.19 13 53.38 13 0 13 C0 8.71 0 4.42 0 0 Z " fill="#C70015" transform="translate(132,0)"/>
<path d="M0 0 C0.66 0 1.32 0 2 0 C2 0.99 2 1.98 2 3 C3.32 3.33 4.64 3.66 6 4 C5.34 5.65 4.68 7.3 4 9 C2.02 9 0.04 9 -2 9 C-2.144375 8.38125 -2.28875 7.7625 -2.4375 7.125 C-2.93152225 4.96741678 -2.93152225 4.96741678 -4 3 C-2.68 3 -1.36 3 0 3 C0 2.01 0 1.02 0 0 Z " fill="#D2D2DC" transform="translate(87,70)"/>
<path d="M0 0 C0.66 0 1.32 0 2 0 C2 0.99 2 1.98 2 3 C3.32 3.33 4.64 3.66 6 4 C5.34 5.65 4.68 7.3 4 9 C2.02 9 0.04 9 -2 9 C-2.144375 8.38125 -2.28875 7.7625 -2.4375 7.125 C-2.93152225 4.96741678 -2.93152225 4.96741678 -4 3 C-2.68 3 -1.36 3 0 3 C0 2.01 0 1.02 0 0 Z " fill="#D3D3DD" transform="translate(43,70)"/>
<path d="M0 0 C0.66 0 1.32 0 2 0 C2 0.99 2 1.98 2 3 C3.32 3.33 4.64 3.66 6 4 C5.34 5.65 4.68 7.3 4 9 C2.02 9 0.04 9 -2 9 C-1.67 7.68 -1.34 6.36 -1 5 C-1.99 4.67 -2.98 4.34 -4 4 C-2.68 3.67 -1.36 3.34 0 3 C0 2.01 0 1.02 0 0 Z " fill="#D5D5DF" transform="translate(76,4)"/>
<path d="M0 0 C0.66 0 1.32 0 2 0 C2 0.99 2 1.98 2 3 C3.32 3.33 4.64 3.66 6 4 C5.01 4.33 4.02 4.66 3 5 C3.33 6.32 3.66 7.64 4 9 C2.02 9 0.04 9 -2 9 C-2.144375 8.38125 -2.28875 7.7625 -2.4375 7.125 C-2.93152225 4.96741678 -2.93152225 4.96741678 -4 3 C-2.68 3 -1.36 3 0 3 C0 2.01 0 1.02 0 0 Z " fill="#D6D6E0" transform="translate(109,70)"/>
<path d="M0 0 C0.66 0 1.32 0 2 0 C2 0.99 2 1.98 2 3 C3.32 3.33 4.64 3.66 6 4 C5.34 5.65 4.68 7.3 4 9 C2.02 9 0.04 9 -2 9 C-1.67 7.68 -1.34 6.36 -1 5 C-1.99 4.67 -2.98 4.34 -4 4 C-2.68 3.67 -1.36 3.34 0 3 C0 2.01 0 1.02 0 0 Z " fill="#D7D7E0" transform="translate(21,70)"/>
<path d="M0 0 C0.66 0 1.32 0 2 0 C2 0.99 2 1.98 2 3 C3.32 3.33 4.64 3.66 6 4 C5.01 4.33 4.02 4.66 3 5 C3.33 6.32 3.66 7.64 4 9 C2.02 9 0.04 9 -2 9 C-2.144375 8.38125 -2.28875 7.7625 -2.4375 7.125 C-2.93152225 4.96741678 -2.93152225 4.96741678 -4 3 C-2.68 3 -1.36 3 0 3 C0 2.01 0 1.02 0 0 Z " fill="#D8D8E0" transform="translate(65,70)"/>
<path d="M0 0 C0.33 0.99 0.66 1.98 1 3 C3.01508358 3.73323796 3.01508358 3.73323796 5 4 C4.34 5.65 3.68 7.3 3 9 C1.02 9 -0.96 9 -3 9 C-2.67 7.68 -2.34 6.36 -2 5 C-2.99 4.67 -3.98 4.34 -5 4 C-4.0409375 3.8453125 -4.0409375 3.8453125 -3.0625 3.6875 C-2.381875 3.460625 -1.70125 3.23375 -1 3 C-0.67 2.01 -0.34 1.02 0 0 Z " fill="#DCDCE5" transform="translate(55,23)"/>
<path d="M0 0 C0.33 0.99 0.66 1.98 1 3 C3.01508358 3.73323796 3.01508358 3.73323796 5 4 C4.34 5.65 3.68 7.3 3 9 C1.02 9 -0.96 9 -3 9 C-2.67 7.68 -2.34 6.36 -2 5 C-2.99 4.67 -3.98 4.34 -5 4 C-4.0409375 3.8453125 -4.0409375 3.8453125 -3.0625 3.6875 C-2.381875 3.460625 -1.70125 3.23375 -1 3 C-0.67 2.01 -0.34 1.02 0 0 Z " fill="#DCDCE4" transform="translate(11,23)"/>
<path d="M0 0 C0.66 0 1.32 0 2 0 C2 0.99 2 1.98 2 3 C3.32 3.33 4.64 3.66 6 4 C5.34 5.65 4.68 7.3 4 9 C2.02 9 0.04 9 -2 9 C-1.67 7.68 -1.34 6.36 -1 5 C-1.99 4.67 -2.98 4.34 -4 4 C-2.68 3.67 -1.36 3.34 0 3 C0 2.01 0 1.02 0 0 Z " fill="#D8D8E2" transform="translate(120,4)"/>
<path d="M0 0 C0.33 0.99 0.66 1.98 1 3 C3.01508358 3.73323796 3.01508358 3.73323796 5 4 C4.34 5.65 3.68 7.3 3 9 C1.02 9 -0.96 9 -3 9 C-2.67 7.68 -2.34 6.36 -2 5 C-2.99 4.67 -3.98 4.34 -5 4 C-4.0409375 3.8453125 -4.0409375 3.8453125 -3.0625 3.6875 C-2.381875 3.460625 -1.70125 3.23375 -1 3 C-0.67 2.01 -0.34 1.02 0 0 Z " fill="#DBDBE4" transform="translate(55,4)"/>
<path d="M0 0 C0.66 0 1.32 0 2 0 C2 0.99 2 1.98 2 3 C3.32 3.33 4.64 3.66 6 4 C5.01 4.33 4.02 4.66 3 5 C3.33 6.32 3.66 7.64 4 9 C2.02 9 0.04 9 -2 9 C-2.66 7.02 -3.32 5.04 -4 3 C-2.68 3 -1.36 3 0 3 C0 2.01 0 1.02 0 0 Z " fill="#D8D8E2" transform="translate(32,4)"/>
<path d="M0 0 C0.33 0.99 0.66 1.98 1 3 C3.01508358 3.73323796 3.01508358 3.73323796 5 4 C4.34 5.65 3.68 7.3 3 9 C1.02 9 -0.96 9 -3 9 C-2.67 7.68 -2.34 6.36 -2 5 C-2.99 4.67 -3.98 4.34 -5 4 C-4.0409375 3.8453125 -4.0409375 3.8453125 -3.0625 3.6875 C-2.381875 3.460625 -1.70125 3.23375 -1 3 C-0.67 2.01 -0.34 1.02 0 0 Z " fill="#DBDBE4" transform="translate(11,4)"/>
<path d="M0 0 C0.33 0.99 0.66 1.98 1 3 C2.32 3 3.64 3 5 3 C5 3.66 5 4.32 5 5 C4.34 5.66 3.68 6.32 3 7 C3 7.66 3 8.32 3 9 C1.02 9.33 -0.96 9.66 -3 10 C-3.33 8.02 -3.66 6.04 -4 4 C-3.01 4 -2.02 4 -1 4 C-0.67 2.68 -0.34 1.36 0 0 Z " fill="#D9D8E2" transform="translate(55,79)"/>
<path d="M0 0 C0.33 0.99 0.66 1.98 1 3 C3.01508358 3.73323796 3.01508358 3.73323796 5 4 C4.34 5.65 3.68 7.3 3 9 C1.02 9 -0.96 9 -3 9 C-2.67 7.68 -2.34 6.36 -2 5 C-2.99 4.67 -3.98 4.34 -5 4 C-4.0409375 3.8453125 -4.0409375 3.8453125 -3.0625 3.6875 C-2.381875 3.460625 -1.70125 3.23375 -1 3 C-0.67 2.01 -0.34 1.02 0 0 Z " fill="#DDDDE6" transform="translate(121,23)"/>
<path d="M0 0 C0.66 0.33 1.32 0.66 2 1 C2 1.66 2 2.32 2 3 C3.32 3.33 4.64 3.66 6 4 C5.01 4.33 4.02 4.66 3 5 C3.33 6.32 3.66 7.64 4 9 C2.02 9 0.04 9 -2 9 C-2.66 7.02 -3.32 5.04 -4 3 C-2.68 3 -1.36 3 0 3 C0 2.01 0 1.02 0 0 Z " fill="#DDDDE6" transform="translate(98,23)"/>
<path d="M0 0 C0.66 0.33 1.32 0.66 2 1 C2 1.66 2 2.32 2 3 C3.32 3.33 4.64 3.66 6 4 C5.01 4.33 4.02 4.66 3 5 C3.33 6.32 3.66 7.64 4 9 C2.02 9 0.04 9 -2 9 C-2.66 7.02 -3.32 5.04 -4 3 C-2.68 3 -1.36 3 0 3 C0 2.01 0 1.02 0 0 Z " fill="#DCDCE5" transform="translate(98,4)"/>
<path d="M0 0 C0.33 0.99 0.66 1.98 1 3 C2.32 3 3.64 3 5 3 C5 3.66 5 4.32 5 5 C4.34 5.66 3.68 6.32 3 7 C3 7.66 3 8.32 3 9 C1.02 9.33 -0.96 9.66 -3 10 C-3.33 8.02 -3.66 6.04 -4 4 C-3.01 4 -2.02 4 -1 4 C-0.67 2.68 -0.34 1.36 0 0 Z " fill="#DBDBE3" transform="translate(11,79)"/>
<path d="M0 0 C0.66 0 1.32 0 2 0 C2 0.99 2 1.98 2 3 C3.32 3.33 4.64 3.66 6 4 C5.01 4.33 4.02 4.66 3 5 C3.33 6.32 3.66 7.64 4 9 C3.38125 8.814375 2.7625 8.62875 2.125 8.4375 C-0.04160178 7.76313824 -0.04160178 7.76313824 -2 9 C-2.66 7.02 -3.32 5.04 -4 3 C-2.68 3 -1.36 3 0 3 C0 2.01 0 1.02 0 0 Z " fill="#DFDFE8" transform="translate(32,23)"/>
<path d="M0 0 C0.66 0 1.32 0 2 0 C2 0.99 2 1.98 2 3 C3.32 3.33 4.64 3.66 6 4 C5.01 4.33 4.02 4.66 3 5 C3.33 6.32 3.66 7.64 4 9 C2.02 9 0.04 9 -2 9 C-1.67 7.68 -1.34 6.36 -1 5 C-1.99 4.67 -2.98 4.34 -4 4 C-2.68 3.67 -1.36 3.34 0 3 C0 2.01 0 1.02 0 0 Z " fill="#DFE0E8" transform="translate(76,23)"/>
<path d="M0 0 C0.33 0.99 0.66 1.98 1 3 C3.01508358 3.73323796 3.01508358 3.73323796 5 4 C4.34 5.65 3.68 7.3 3 9 C2.38125 8.814375 1.7625 8.62875 1.125 8.4375 C-1.04160178 7.76313824 -1.04160178 7.76313824 -3 9 C-3 7.68 -3 6.36 -3 5 C-3.66 4.34 -4.32 3.68 -5 3 C-3.68 3 -2.36 3 -1 3 C-0.67 2.01 -0.34 1.02 0 0 Z " fill="#E6E6ED" transform="translate(55,42)"/>
<path d="M0 0 C0.66 0.33 1.32 0.66 2 1 C2 1.66 2 2.32 2 3 C3.32 3.33 4.64 3.66 6 4 C5.01 4.495 5.01 4.495 4 5 C3.34786708 7.02463255 3.34786708 7.02463255 3 9 C1.68 9 0.36 9 -1 9 C-2 7 -3 5 -4 3 C-2.68 3 -1.36 3 0 3 C0 2.01 0 1.02 0 0 Z " fill="#E6E6EE" transform="translate(98,42)"/>
<path d="M0 0 C0.66 0 1.32 0 2 0 C2 0.99 2 1.98 2 3 C2.99 3.33 3.98 3.66 5 4 C4.67 5.65 4.34 7.3 4 9 C3.401875 8.835 2.80375 8.67 2.1875 8.5 C-0.11344336 7.8885876 -0.11344336 7.8885876 -3 8 C-2.67 7.01 -2.34 6.02 -2 5 C-2.33 4.34 -2.66 3.68 -3 3 C-2.01 3 -1.02 3 0 3 C0 2.01 0 1.02 0 0 Z " fill="#E3E3EB" transform="translate(32,61)"/>
<path d="M0 0 C0.66 0 1.32 0 2 0 C2 1.32 2 2.64 2 4 C2.99 4.33 3.98 4.66 5 5 C4.67 6.32 4.34 7.64 4 9 C2.02 9.33 0.04 9.66 -2 10 C-2.33 8.02 -2.66 6.04 -3 4 C-2.01 4 -1.02 4 0 4 C0 2.68 0 1.36 0 0 Z " fill="#E0E0E7" transform="translate(21,51)"/>
<path d="M0 0 C0.33 0.99 0.66 1.98 1 3 C3.01508358 3.73323796 3.01508358 3.73323796 5 4 C4.34 5.65 3.68 7.3 3 9 C2.38125 8.814375 1.7625 8.62875 1.125 8.4375 C-1.04160178 7.76313824 -1.04160178 7.76313824 -3 9 C-3.33 7.02 -3.66 5.04 -4 3 C-3.01 3 -2.02 3 -1 3 C-0.67 2.01 -0.34 1.02 0 0 Z " fill="#E8E8EF" transform="translate(11,42)"/>
<path d="M0 0 C0.66 0 1.32 0 2 0 C2 0.99 2 1.98 2 3 C3.32 3.33 4.64 3.66 6 4 C5.01 4.33 4.02 4.66 3 5 C3.33 6.32 3.66 7.64 4 9 C3.38125 8.814375 2.7625 8.62875 2.125 8.4375 C-0.04160178 7.76313824 -0.04160178 7.76313824 -2 9 C-2 7.68 -2 6.36 -2 5 C-2.66 4.34 -3.32 3.68 -4 3 C-2.68 3 -1.36 3 0 3 C0 2.01 0 1.02 0 0 Z " fill="#E9E9EF" transform="translate(120,42)"/>
<path d="M0 0 C0.66 0 1.32 0 2 0 C2 0.99 2 1.98 2 3 C3.32 3.33 4.64 3.66 6 4 C5.01 4.495 5.01 4.495 4 5 C3.34786708 7.02463255 3.34786708 7.02463255 3 9 C1.68 9 0.36 9 -1 9 C-1.185625 8.071875 -1.185625 8.071875 -1.375 7.125 C-1.87197356 4.80879168 -1.87197356 4.80879168 -4 3 C-2.68 3 -1.36 3 0 3 C0 2.01 0 1.02 0 0 Z " fill="#E9E9F0" transform="translate(65,14)"/>
<path d="M0 0 C0.66 0 1.32 0 2 0 C2 0.99 2 1.98 2 3 C3.32 3.33 4.64 3.66 6 4 C5.01 4.495 5.01 4.495 4 5 C3.34786708 7.02463255 3.34786708 7.02463255 3 9 C1.68 9 0.36 9 -1 9 C-1.185625 8.071875 -1.185625 8.071875 -1.375 7.125 C-1.87197356 4.80879168 -1.87197356 4.80879168 -4 3 C-2.68 3 -1.36 3 0 3 C0 2.01 0 1.02 0 0 Z " fill="#E9E9F0" transform="translate(43,14)"/>
<path d="M0 0 C0.66 0 1.32 0 2 0 C2 0.99 2 1.98 2 3 C3.32 3.33 4.64 3.66 6 4 C5.01 4.495 5.01 4.495 4 5 C3.34786708 7.02463255 3.34786708 7.02463255 3 9 C1.68 9 0.36 9 -1 9 C-1.33 8.34 -1.66 7.68 -2 7 C-1.67 6.34 -1.34 5.68 -1 5 C-1.99 4.67 -2.98 4.34 -4 4 C-2.68 3.67 -1.36 3.34 0 3 C0 2.01 0 1.02 0 0 Z " fill="#E8E8F0" transform="translate(21,14)"/>
<path d="M0 0 C0.103125 0.639375 0.20625 1.27875 0.3125 1.9375 C0.539375 2.618125 0.76625 3.29875 1 4 C1.99 4.33 2.98 4.66 4 5 C3.67 6.32 3.34 7.64 3 9 C1.02 9.33 -0.96 9.66 -3 10 C-3.33 8.02 -3.66 6.04 -4 4 C-3.01 4 -2.02 4 -1 4 C-0.67 2.68 -0.34 1.36 0 0 Z " fill="#E3E2EA" transform="translate(121,79)"/>
<path d="M0 0 C0.66 0 1.32 0 2 0 C2 0.99 2 1.98 2 3 C2.99 3.33 3.98 3.66 5 4 C4.67 5.65 4.34 7.3 4 9 C3.38125 8.814375 2.7625 8.62875 2.125 8.4375 C-0.04160178 7.76313824 -0.04160178 7.76313824 -2 9 C-2.33 7.02 -2.66 5.04 -3 3 C-2.01 3 -1.02 3 0 3 C0 2.01 0 1.02 0 0 Z " fill="#E9E9EF" transform="translate(76,61)"/>
<path d="M0 0 C0.33 1.32 0.66 2.64 1 4 C2.32 4.33 3.64 4.66 5 5 C4.34 5.66 3.68 6.32 3 7 C3 7.66 3 8.32 3 9 C1.02 9.33 -0.96 9.66 -3 10 C-3.33 8.02 -3.66 6.04 -4 4 C-3.01 4 -2.02 4 -1 4 C-0.67 2.68 -0.34 1.36 0 0 Z " fill="#E8E8EF" transform="translate(55,60)"/>
<path d="M0 0 C0.33 1.32 0.66 2.64 1 4 C2.32 4.33 3.64 4.66 5 5 C4.34 5.66 3.68 6.32 3 7 C3 7.66 3 8.32 3 9 C1.02 9.33 -0.96 9.66 -3 10 C-3.33 8.02 -3.66 6.04 -4 4 C-3.01 4 -2.02 4 -1 4 C-0.67 2.68 -0.34 1.36 0 0 Z " fill="#E7E7EE" transform="translate(11,60)"/>
<path d="M0 0 C0.66 0 1.32 0 2 0 C2 0.99 2 1.98 2 3 C2.99 3.33 3.98 3.66 5 4 C4.67 5.65 4.34 7.3 4 9 C3.38125 8.814375 2.7625 8.62875 2.125 8.4375 C-0.04160178 7.76313824 -0.04160178 7.76313824 -2 9 C-2.33 7.02 -2.66 5.04 -3 3 C-2.01 3 -1.02 3 0 3 C0 2.01 0 1.02 0 0 Z " fill="#E4E4EA" transform="translate(109,52)"/>
<path d="M0 0 C0.66 0 1.32 0 2 0 C2 0.99 2 1.98 2 3 C2.99 3.33 3.98 3.66 5 4 C4.67 5.65 4.34 7.3 4 9 C3.38125 8.814375 2.7625 8.62875 2.125 8.4375 C-0.04160178 7.76313824 -0.04160178 7.76313824 -2 9 C-2.33 7.02 -2.66 5.04 -3 3 C-2.01 3 -1.02 3 0 3 C0 2.01 0 1.02 0 0 Z " fill="#E3E3EB" transform="translate(87,52)"/>
<path d="M0 0 C0.66 0 1.32 0 2 0 C2 0.99 2 1.98 2 3 C3.32 3.33 4.64 3.66 6 4 C5.01 4.495 5.01 4.495 4 5 C3.34786708 7.02463255 3.34786708 7.02463255 3 9 C1.68 9 0.36 9 -1 9 C-1.185625 8.071875 -1.185625 8.071875 -1.375 7.125 C-1.87197356 4.80879168 -1.87197356 4.80879168 -4 3 C-2.68 3 -1.36 3 0 3 C0 2.01 0 1.02 0 0 Z " fill="#EDEDF3" transform="translate(76,42)"/>
<path d="M0 0 C0.66 0.33 1.32 0.66 2 1 C2 1.66 2 2.32 2 3 C3.32 3.33 4.64 3.66 6 4 C5.01 4.495 5.01 4.495 4 5 C3.34786708 7.02463255 3.34786708 7.02463255 3 9 C1.68 9 0.36 9 -1 9 C-1.33 8.34 -1.66 7.68 -2 7 C-1.67 6.34 -1.34 5.68 -1 5 C-1.99 4.67 -2.98 4.34 -4 4 C-2.68 3.67 -1.36 3.34 0 3 C0 2.01 0 1.02 0 0 Z " fill="#EBEBF2" transform="translate(32,42)"/>
<path d="M0 0 C0.66 0 1.32 0 2 0 C2 0.99 2 1.98 2 3 C2.99 3.33 3.98 3.66 5 4 C4.67 5.65 4.34 7.3 4 9 C3.38125 8.814375 2.7625 8.62875 2.125 8.4375 C-0.04160178 7.76313824 -0.04160178 7.76313824 -2 9 C-2.33 7.02 -2.66 5.04 -3 3 C-2.01 3 -1.02 3 0 3 C0 2.01 0 1.02 0 0 Z " fill="#E8E8EF" transform="translate(109,33)"/>
<path d="M0 0 C0.66 0 1.32 0 2 0 C2 0.99 2 1.98 2 3 C2.99 3.33 3.98 3.66 5 4 C4.67 5.65 4.34 7.3 4 9 C3.38125 8.814375 2.7625 8.62875 2.125 8.4375 C-0.04160178 7.76313824 -0.04160178 7.76313824 -2 9 C-2.33 7.02 -2.66 5.04 -3 3 C-2.01 3 -1.02 3 0 3 C0 2.01 0 1.02 0 0 Z " fill="#E9E9EF" transform="translate(87,33)"/>
<path d="M0 0 C0.66 0 1.32 0 2 0 C2 0.99 2 1.98 2 3 C2.99 3.33 3.98 3.66 5 4 C4.67 5.65 4.34 7.3 4 9 C3.38125 8.814375 2.7625 8.62875 2.125 8.4375 C-0.04160178 7.76313824 -0.04160178 7.76313824 -2 9 C-2.33 7.02 -2.66 5.04 -3 3 C-2.01 3 -1.02 3 0 3 C0 2.01 0 1.02 0 0 Z " fill="#E8E8EF" transform="translate(43,33)"/>
<path d="M0 0 C0.66 0 1.32 0 2 0 C2 0.99 2 1.98 2 3 C3.32 3.33 4.64 3.66 6 4 C5.01 4.495 5.01 4.495 4 5 C3.34786708 7.02463255 3.34786708 7.02463255 3 9 C1.68 9 0.36 9 -1 9 C-1.185625 8.071875 -1.185625 8.071875 -1.375 7.125 C-1.87197356 4.80879168 -1.87197356 4.80879168 -4 3 C-2.68 3 -1.36 3 0 3 C0 2.01 0 1.02 0 0 Z " fill="#ECEBF2" transform="translate(109,14)"/>
<path d="M0 0 C0.66 0 1.32 0 2 0 C2 0.99 2 1.98 2 3 C3.32 3.33 4.64 3.66 6 4 C5.01 4.495 5.01 4.495 4 5 C3.34786708 7.02463255 3.34786708 7.02463255 3 9 C1.68 9 0.36 9 -1 9 C-1.185625 8.071875 -1.185625 8.071875 -1.375 7.125 C-1.87197356 4.80879168 -1.87197356 4.80879168 -4 3 C-2.68 3 -1.36 3 0 3 C0 2.01 0 1.02 0 0 Z " fill="#EBEBF2" transform="translate(87,14)"/>
<path d="M0 0 C0.66 0 1.32 0 2 0 C2 0.99 2 1.98 2 3 C2.99 3.33 3.98 3.66 5 4 C4.67 5.32 4.34 6.64 4 8 C2.02 8.33 0.04 8.66 -2 9 C-2.33 7.02 -2.66 5.04 -3 3 C-2.01 3 -1.02 3 0 3 C0 2.01 0 1.02 0 0 Z " fill="#E7E7ED" transform="translate(76,80)"/>
<path d="M0 0 C0.66 0 1.32 0 2 0 C2 0.99 2 1.98 2 3 C3.32 3.33 4.64 3.66 6 4 C5.34 4.66 4.68 5.32 4 6 C4 6.66 4 7.32 4 8 C2.02 8.33 0.04 8.66 -2 9 C-2.33 7.02 -2.66 5.04 -3 3 C-2.01 3 -1.02 3 0 3 C0 2.01 0 1.02 0 0 Z " fill="#EBEBF1" transform="translate(120,61)"/>
<path d="M0 0 C0.66 0 1.32 0 2 0 C2 0.99 2 1.98 2 3 C2.99 3.33 3.98 3.66 5 4 C4.67 5.32 4.34 6.64 4 8 C2.02 8.33 0.04 8.66 -2 9 C-2.33 7.02 -2.66 5.04 -3 3 C-2.01 3 -1.02 3 0 3 C0 2.01 0 1.02 0 0 Z " fill="#E7E7ED" transform="translate(65,52)"/>
<path d="M0 0 C0.66 0 1.32 0 2 0 C2 0.99 2 1.98 2 3 C2.99 3.33 3.98 3.66 5 4 C4.67 5.32 4.34 6.64 4 8 C2.02 8.33 0.04 8.66 -2 9 C-2.33 7.02 -2.66 5.04 -3 3 C-2.01 3 -1.02 3 0 3 C0 2.01 0 1.02 0 0 Z " fill="#E6E6EC" transform="translate(43,52)"/>
<path d="M0 0 C0.66 0 1.32 0 2 0 C2 0.99 2 1.98 2 3 C2.99 3.33 3.98 3.66 5 4 C4.67 5.65 4.34 7.3 4 9 C3.38125 8.814375 2.7625 8.62875 2.125 8.4375 C-0.04160178 7.76313824 -0.04160178 7.76313824 -2 9 C-2.33 7.02 -2.66 5.04 -3 3 C-2.01 3 -1.02 3 0 3 C0 2.01 0 1.02 0 0 Z " fill="#EBEBF1" transform="translate(65,33)"/>
<path d="M0 0 C0.66 0 1.32 0 2 0 C2 0.99 2 1.98 2 3 C2.99 3.33 3.98 3.66 5 4 C4.67 5.65 4.34 7.3 4 9 C3.38125 8.814375 2.7625 8.62875 2.125 8.4375 C-0.04160178 7.76313824 -0.04160178 7.76313824 -2 9 C-2.33 7.02 -2.66 5.04 -3 3 C-2.01 3 -1.02 3 0 3 C0 2.01 0 1.02 0 0 Z " fill="#ECECF2" transform="translate(21,33)"/>
<path d="M0 0 C0.66 0.33 1.32 0.66 2 1 C2 1.66 2 2.32 2 3 C2.99 3.33 3.98 3.66 5 4 C4.67 5.65 4.34 7.3 4 9 C1.03 8.505 1.03 8.505 -2 8 C-2.33 6.35 -2.66 4.7 -3 3 C-2.01 3 -1.02 3 0 3 C0 2.01 0 1.02 0 0 Z " fill="#E6E7ED" transform="translate(32,80)"/>
<path d="M0 0 C0.66 0.33 1.32 0.66 2 1 C2 1.66 2 2.32 2 3 C2.99 3.33 3.98 3.66 5 4 C4.67 5.65 4.34 7.3 4 9 C1.03 8.505 1.03 8.505 -2 8 C-2 7.01 -2 6.02 -2 5 C-2.66 4.34 -3.32 3.68 -4 3 C-2.68 3 -1.36 3 0 3 C0 2.01 0 1.02 0 0 Z " fill="#EEEDF3" transform="translate(98,61)"/>
<path d="M0 0 C0.66 0.33 1.32 0.66 2 1 C2 1.66 2 2.32 2 3 C2.99 3.33 3.98 3.66 5 4 C4.67 5.65 4.34 7.3 4 9 C1.03 8.505 1.03 8.505 -2 8 C-2.33 6.35 -2.66 4.7 -3 3 C-2.01 3 -1.02 3 0 3 C0 2.01 0 1.02 0 0 Z " fill="#ECECF2" transform="translate(98,80)"/>
</svg>
